<?xml version="1.0" encoding="utf-8"?>
<svg viewBox="330 443 174 174" xmlns="http://www.w3.org/2000/svg">
  <ellipse cx="417.001" cy="529.785" rx="79.533" ry="79.533" class="background"/>
  <path d="M 503.406 529.785 C 503.406 577.231 464.942 615.695 417.495 615.695 C 370.048 615.695 331.584 577.231 331.584 529.785 C 331.584 482.338 370.048 443.874 417.495 443.874 C 464.942 443.874 503.406 482.338 503.406 529.785 Z M 417.495 453.366 C 375.29 453.366 341.076 487.58 341.076 529.785 C 341.076 571.989 375.29 606.203 417.495 606.203 C 459.7 606.203 493.914 571.989 493.914 529.785 C 493.914 487.58 459.7 453.366 417.495 453.366 Z" class="foreground" />
  <path style="fill: none; stroke: black;"/>
  <path d="M 363.132 543.674 C 363.543 530.25 368.745 486.473 417.411 485.961 C 417.417 485.961 417.423 485.961 417.429 485.961 L 417.429 485.96 C 417.451 485.96 417.473 485.96 417.495 485.96 C 417.517 485.96 417.54 485.96 417.562 485.96 L 417.562 485.961 C 417.568 485.961 417.574 485.961 417.58 485.961 C 466.245 486.473 471.448 530.25 471.858 543.673 C 472.186 554.399 462.848 555.472 462.848 555.472 L 435.172 555.258 C 435.172 555.258 430.318 562.883 417.58 562.767 C 417.557 562.767 417.535 562.767 417.513 562.766 C 417.479 562.767 417.445 562.768 417.411 562.768 C 404.672 562.883 399.819 555.258 399.819 555.258 L 372.143 555.472 C 372.143 555.472 362.804 554.399 363.132 543.674 Z" class="foreground" style="fill: none; stroke-width: 9;"/>
  <path d="M 434.593 544.481 C 434.593 549.398 430.414 553.384 425.26 553.384 C 420.106 553.384 415.927 549.398 415.927 544.481 C 415.927 540.604 418.526 537.305 422.152 536.084 L 425.26 498.033 L 428.368 536.084 C 431.994 537.305 434.593 540.604 434.593 544.481 Z" class="foreground" transform="matrix(0.913545, 0.406737, -0.406737, 0.913545, 250.590911, -127.519035)"/>
  <path d="M 377.161 541.156 C 375.739 539.853 375.643 537.643 376.947 536.221 C 378.25 534.799 380.46 534.703 381.882 536.006 C 383.304 537.31 383.4 539.519 382.097 540.942 C 380.793 542.364 378.584 542.46 377.161 541.156 Z M 381.452 523.778 C 380.03 522.475 379.934 520.265 381.237 518.843 C 382.541 517.421 384.751 517.325 386.173 518.628 C 387.595 519.932 387.691 522.142 386.387 523.564 C 385.084 524.986 382.874 525.082 381.452 523.778 Z M 393.252 510.263 C 391.83 508.96 391.734 506.75 393.037 505.328 C 394.341 503.906 396.55 503.81 397.973 505.114 C 399.395 506.417 399.491 508.627 398.187 510.049 C 396.884 511.471 394.674 511.567 393.252 510.263 Z M 449.032 523.778 C 447.61 522.474 447.514 520.265 448.818 518.843 C 450.121 517.421 452.331 517.325 453.753 518.628 C 455.175 519.932 455.271 522.141 453.968 523.563 C 452.664 524.985 450.454 525.081 449.032 523.778 Z M 422.644 504.041 C 421.222 502.738 421.126 500.528 422.429 499.106 C 423.733 497.684 425.942 497.588 427.364 498.891 C 428.786 500.195 428.882 502.405 427.579 503.827 C 426.275 505.249 424.066 505.345 422.644 504.041 Z M 407.626 504.041 C 406.204 502.738 406.108 500.528 407.411 499.106 C 408.715 497.684 410.924 497.588 412.346 498.891 C 413.768 500.195 413.864 502.405 412.561 503.827 C 411.257 505.249 409.048 505.345 407.626 504.041 Z M 437.233 510.263 C 435.811 508.96 435.715 506.75 437.018 505.328 C 438.322 503.906 440.531 503.81 441.953 505.114 C 443.375 506.417 443.471 508.627 442.168 510.049 C 440.864 511.471 438.655 511.567 437.233 510.263 Z M 453.108 541.156 C 451.686 539.853 451.59 537.643 452.894 536.221 C 454.197 534.799 456.407 534.703 457.829 536.007 C 459.251 537.31 459.347 539.52 458.043 540.942 C 456.74 542.364 454.53 542.46 453.108 541.156 Z" class="foreground" />
</svg>
