<?xml version="1.0" encoding="utf-8"?>
<svg viewBox="249 341 174 174" xmlns="http://www.w3.org/2000/svg">
  <defs>
    <style id="bx-google-fonts">@import url(https://fonts.googleapis.com/css?family=Allerta:400);</style>
  </defs>
  <path d="M 412.763 427.758 C 412.763 469.963 378.549 504.177 336.344 504.177 C 294.139 504.177 259.925 469.963 259.925 427.758 C 259.925 385.553 294.139 351.339 336.344 351.339 C 378.549 351.339 412.763 385.553 412.763 427.758 Z M 301.344 392.984 L 301.344 402.991 L 282.711 402.991 L 282.711 411.13 L 282.723 411.13 C 283.077 424.806 291.753 436.412 303.874 441.073 C 308.295 452.03 318.102 460.237 330.014 462.413 L 330.014 475.608 C 323.267 476.843 317.197 480.017 312.404 484.531 L 360.284 484.531 C 355.491 480.017 349.422 476.843 342.674 475.608 L 342.674 462.413 C 354.586 460.237 364.393 452.031 368.814 441.073 C 380.936 436.413 389.611 424.806 389.965 411.13 L 389.977 411.13 L 389.977 402.991 L 371.344 402.991 L 371.344 392.984 Z M 301.344 411.13 L 301.344 427.984 C 301.344 428.932 301.382 429.871 301.456 430.8 C 295.184 426.439 291.005 419.279 290.727 411.13 Z M 371.232 430.8 C 371.306 429.871 371.344 428.932 371.344 427.984 L 371.344 411.13 L 381.961 411.13 C 381.683 419.279 377.504 426.439 371.232 430.8 Z" class="background" />
  <path d="M 422.255 427.758 C 422.255 475.205 383.791 513.669 336.344 513.669 C 288.897 513.669 250.433 475.205 250.433 427.758 C 250.433 380.311 288.897 341.847 336.344 341.847 C 383.791 341.847 422.255 380.311 422.255 427.758 Z M 336.344 351.339 C 294.139 351.339 259.925 385.553 259.925 427.758 C 259.925 469.963 294.139 504.177 336.344 504.177 C 378.549 504.177 412.763 469.963 412.763 427.758 C 412.763 385.553 378.549 351.339 336.344 351.339 Z M 371.344 392.984 L 371.344 402.991 L 389.977 402.991 L 389.977 411.13 L 389.965 411.13 C 389.611 424.806 380.936 436.413 368.814 441.073 C 364.393 452.031 354.586 460.237 342.674 462.413 L 342.674 475.608 C 349.422 476.843 355.491 480.017 360.284 484.531 L 312.404 484.531 C 317.197 480.017 323.267 476.843 330.014 475.608 L 330.014 462.413 C 318.102 460.237 308.295 452.03 303.874 441.073 C 291.753 436.412 283.077 424.806 282.723 411.13 L 282.711 411.13 L 282.711 402.991 L 301.344 402.991 L 301.344 392.984 Z M 290.727 411.13 C 291.005 419.279 295.184 426.439 301.456 430.8 C 301.382 429.871 301.344 428.932 301.344 427.984 L 301.344 411.13 Z M 381.961 411.13 L 371.344 411.13 L 371.344 427.984 C 371.344 428.932 371.306 429.871 371.232 430.8 C 377.504 426.439 381.683 419.279 381.961 411.13 Z" class="foreground" />
  <text x="322.187" y="443.642" class="background" style="font-family: Allerta; font-size: 48px; font-weight: bold; text-transform: capitalize; white-space: pre;">5</text>
</svg>
