<?xml version="1.0" encoding="utf-8"?>
<svg viewBox="249 341 174 174" xmlns="http://www.w3.org/2000/svg">
  <path d="M 421.997 427.758 C 421.997 475.205 383.533 513.669 336.086 513.669 C 288.639 513.669 250.176 475.205 250.176 427.758 C 250.176 380.311 288.639 341.847 336.086 341.847 C 383.533 341.847 421.997 380.311 421.997 427.758 Z" class="foreground" style="stroke: none;"/>
  <path d="M 411.763 427.758 C 411.763 469.963 377.549 504.177 335.344 504.177 C 293.139 504.177 258.925 469.963 258.925 427.758 C 258.925 385.553 293.139 351.339 335.344 351.339 C 377.549 351.339 411.763 385.553 411.763 427.758 Z" class="background" style="stroke: none;"/>
  <path d="M 369.683 442.16 L 369.683 477.988 L 302.961 477.988 L 302.961 442.16 L 296.846 442.16 L 296.846 432.72 L 328.599 432.72 C 329.407 432.182 330.01 431.402 330.265 430.45 C 330.273 430.418 330.281 430.387 330.289 430.355 L 334.725 413.801 C 334.734 413.769 334.742 413.738 334.751 413.707 C 334.892 413.179 334.915 412.644 334.834 412.124 L 347.204 412.124 L 347.204 412.124 C 347.223 412.124 347.241 412.124 347.26 412.124 C 351.095 412.124 354.204 415.233 354.204 419.068 C 354.204 419.082 354.204 419.096 354.204 419.11 C 354.204 419.114 354.204 419.119 354.204 419.124 C 354.204 419.154 354.204 419.184 354.203 419.214 L 354.203 432.72 L 375.797 432.72 L 375.797 442.16 Z M 329.471 429.547 C 328.9 431.68 326.706 432.947 324.571 432.375 C 322.438 431.803 321.171 429.609 321.743 427.476 L 325.884 412.021 L 325.885 412.022 C 326.457 409.887 328.65 408.621 330.784 409.193 C 332.918 409.765 334.184 411.957 333.612 414.092 C 333.605 414.121 333.597 414.15 333.588 414.179 L 329.494 429.46 C 329.487 429.489 329.479 429.518 329.471 429.547 Z M 344.993 403.891 C 344.993 408.394 341.343 412.044 336.84 412.044 C 336.123 412.044 335.427 411.951 334.764 411.777 C 334.364 410.16 332.965 408.742 331.043 408.227 C 330.632 408.117 330.221 408.055 329.818 408.036 C 329.099 406.822 328.687 405.405 328.687 403.891 C 328.687 399.388 332.337 395.738 336.84 395.738 C 341.343 395.738 344.993 399.388 344.993 403.891 Z M 345.312 420.124 L 345.312 432.72 L 346.203 432.72 L 346.203 420.124 Z" class="foreground" style="stroke: none;"/>
  <path d="M 351.447 384.448 L 367.537 384.663" style="stroke-linecap: round; stroke-width: 14; fill: none; " class="foreground"/>
  <path d="M 351.661 395.033 L 355.523 395.033" style="stroke-linecap: round; stroke-width: 5; fill: none; " class="foreground"/>
  <path d="M 348.658 400.753 L 350.803 400.753" style="stroke-width: 4; stroke-linecap: round; fill: none; " class="foreground"/>
</svg>
