<?xml version="1.0" encoding="utf-8"?>
<svg viewBox="605 63 174 174" xmlns="http://www.w3.org/2000/svg" >
  <ellipse cx="691.935" cy="149.786" rx="79.533" ry="79.533" class="background"/>
  <path d="M 736.573 167.954 L 648.287 131.617 M 726.26 183.464 L 658.6 116.108 M 710.797 193.846 L 674.063 105.725 M 692.537 197.521 L 692.322 102.05 M 674.261 193.929 L 710.598 105.643 M 658.751 183.616 L 726.108 115.955 M 736.491 131.419 L 648.369 168.153 M 740.165 149.678 L 644.694 149.893" class="foreground" style="fill: none; stroke-width: 4;"/>
  <ellipse cx="692.429" cy="149.786" rx="36.686" ry="36.686" class="background"/>
  <path d="M 778.341 149.786 C 778.341 197.232 739.876 235.696 692.43 235.696 C 644.982 235.696 606.518 197.232 606.518 149.786 C 606.518 102.339 644.982 63.875 692.43 63.875 C 739.876 63.875 778.341 102.339 778.341 149.786 Z M 692.43 73.367 C 650.224 73.367 616.01 107.581 616.01 149.786 C 616.01 191.99 650.224 226.204 692.43 226.204 C 734.634 226.204 768.849 191.99 768.849 149.786 C 768.849 107.581 734.634 73.367 692.43 73.367 Z" class="foreground"/>
  <path d="M 569.068 88.641" style="fill: none; stroke: black;"/>
  <path d="M 716.429 125.942 L 668.429 126.157" class="foreground" style="stroke-width: 4;" transform="matrix(0, 1, -1, 0, 818.478516, -566.379519)"/>
  <ellipse transform="matrix(0.484811, 0.874619, -0.874616, 0.484809, 697.414521, -31.064078)" cx="155.757" cy="92.038" rx="6.651" ry="6.651" class="foreground"/>
  <path d="M 680.437 114.013 L 653.437 113.708" class="foreground" style="stroke-width: 4; " transform="matrix(-0.87462, 0.48481, -0.48481, -0.87462, 1341.005044, -79.54213)" />
</svg>
