<?xml version="1.0" encoding="utf-8"?>
<svg viewBox="606 253 174 174" xmlns="http://www.w3.org/2000/svg">
  <ellipse cx="693.228" cy="339.886" rx="81.281" ry="80.824" class="background"/>
  <path d="M 649.877 332.062" style="fill: none; stroke: black;"/>
  <path d="M 631.161 352.443 L 651.114 330.989 C 651.114 330.989 662.735 326.779 674.284 327.771 C 684.219 328.625 692.52 335.495 692.734 335.495 C 692.948 335.495 704.391 329.315 710.755 328.2 C 718.507 326.843 733.283 329.702 733.283 329.702 L 754.951 352.229 C 754.951 352.229 732.985 347.892 719.336 349.868 C 707.742 351.547 694.664 360.167 694.664 360.167 C 694.664 360.167 692.948 360.167 692.734 360.167 C 692.518 360.167 677.094 351.179 664.63 349.654 C 651.143 348.004 631.161 352.658 631.161 352.443 Z M 628.375 362.952 L 635.985 354.189 C 642.662 353.002 655.427 351.023 664.951 352.188 C 677.416 353.713 692.841 362.701 693.055 362.701 C 693.271 362.701 694.987 362.701 694.987 362.701 C 694.987 362.701 708.065 354.081 719.659 352.402 C 729.073 351.039 742.443 352.679 749.833 353.828 L 758.383 363.385 C 758.383 363.385 700.886 363.17 700.886 363.385 C 700.886 363.6 698.097 367.032 698.097 367.032 L 687.37 367.247 L 685.224 363.385 C 685.224 363.385 628.946 362.75 628.375 362.952 Z M 679.323 298.373 L 677.546 302.592 L 680.885 305.723 L 676.324 305.338 L 674.377 309.482 L 673.334 305.024 L 668.791 304.453 L 672.709 302.083 L 671.849 297.587 L 675.312 300.58 Z M 707.431 298.373 L 711.441 300.58 L 714.905 297.587 L 714.044 302.083 L 717.962 304.453 L 713.419 305.024 L 712.377 309.482 L 710.43 305.338 L 705.868 305.724 L 709.207 302.592 Z M 664.294 310.932 L 664.706 315.491 L 669.125 316.689 L 664.916 318.49 L 665.143 323.063 L 662.129 319.616 L 657.85 321.245 L 660.197 317.314 L 657.326 313.747 L 661.79 314.764 Z M 722.46 310.933 L 724.965 314.765 L 729.428 313.748 L 726.558 317.314 L 728.904 321.245 L 724.625 319.617 L 721.612 323.063 L 721.838 318.491 L 717.629 316.689 L 722.048 315.492 Z M 693.377 292.55 L 694.88 296.874 L 699.457 296.967 L 695.809 299.733 L 697.135 304.115 L 693.377 301.5 L 689.619 304.115 L 690.945 299.733 L 687.297 296.967 L 691.874 296.874 Z M 628.375 362.952 L 628.372 362.956 C 628.37 362.955 628.372 362.953 628.375 362.952 Z M 779.288 340.343 C 779.288 387.79 740.824 426.254 693.377 426.254 C 645.93 426.254 607.466 387.79 607.466 340.343 C 607.466 292.896 645.93 254.432 693.377 254.432 C 740.824 254.432 779.288 292.896 779.288 340.343 Z M 693.377 263.924 C 651.172 263.924 616.958 298.138 616.958 340.343 C 616.958 382.548 651.172 416.762 693.377 416.762 C 735.582 416.762 769.796 382.548 769.796 340.343 C 769.796 298.138 735.582 263.924 693.377 263.924 Z" class="foreground"/>
  <path d="M 667.684 327.986" style="fill: none; stroke: black;"/>
</svg>
