<?xml version="1.0" encoding="utf-8"?>
<svg viewBox="264 341 174 174" xmlns="http://www.w3.org/2000/svg">
  <defs>
    <style id="bx-google-fonts">@import url(https://fonts.googleapis.com/css?family=Allerta:400);</style>
  </defs>
  <path d="M 427.153 427.758 C 427.153 469.963 392.939 504.177 350.734 504.177 C 308.529 504.177 274.315 469.963 274.315 427.758 C 274.315 385.553 308.529 351.339 350.734 351.339 C 392.939 351.339 427.153 385.553 427.153 427.758 Z M 315.734 392.984 L 315.734 402.991 L 297.101 402.991 L 297.101 411.13 L 297.113 411.13 C 297.467 424.806 306.143 436.412 318.264 441.073 C 322.685 452.03 332.492 460.237 344.404 462.413 L 344.404 475.608 C 337.657 476.843 331.587 480.017 326.794 484.531 L 374.674 484.531 C 369.881 480.017 363.812 476.843 357.064 475.608 L 357.064 462.413 C 368.976 460.237 378.783 452.031 383.204 441.073 C 395.326 436.413 404.001 424.806 404.355 411.13 L 404.367 411.13 L 404.367 402.991 L 385.734 402.991 L 385.734 392.984 Z M 315.734 411.13 L 315.734 427.984 C 315.734 428.932 315.772 429.871 315.846 430.8 C 309.574 426.439 305.395 419.279 305.117 411.13 Z M 385.622 430.8 C 385.696 429.871 385.734 428.932 385.734 427.984 L 385.734 411.13 L 396.351 411.13 C 396.073 419.279 391.894 426.439 385.622 430.8 Z" class="background"/>
  <path d="M 436.645 427.758 C 436.645 475.205 398.181 513.669 350.734 513.669 C 303.287 513.669 264.823 475.205 264.823 427.758 C 264.823 380.311 303.287 341.847 350.734 341.847 C 398.181 341.847 436.645 380.311 436.645 427.758 Z M 350.734 351.339 C 308.529 351.339 274.315 385.553 274.315 427.758 C 274.315 469.963 308.529 504.177 350.734 504.177 C 392.939 504.177 427.153 469.963 427.153 427.758 C 427.153 385.553 392.939 351.339 350.734 351.339 Z M 385.734 392.984 L 385.734 402.991 L 404.367 402.991 L 404.367 411.13 L 404.355 411.13 C 404.001 424.806 395.326 436.413 383.204 441.073 C 378.783 452.031 368.976 460.237 357.064 462.413 L 357.064 475.608 C 363.812 476.843 369.881 480.017 374.674 484.531 L 326.794 484.531 C 331.587 480.017 337.657 476.843 344.404 475.608 L 344.404 462.413 C 332.492 460.237 322.685 452.03 318.264 441.073 C 306.143 436.412 297.467 424.806 297.113 411.13 L 297.101 411.13 L 297.101 402.991 L 315.734 402.991 L 315.734 392.984 Z M 305.117 411.13 C 305.395 419.279 309.574 426.439 315.846 430.8 C 315.772 429.871 315.734 428.932 315.734 427.984 L 315.734 411.13 Z M 396.351 411.13 L 385.734 411.13 L 385.734 427.984 C 385.734 428.932 385.696 429.871 385.622 430.8 C 391.894 426.439 396.073 419.279 396.351 411.13 Z" class="foreground"/>
  <text x="322.187" y="443.642" class="background" style="font-family: Allerta; font-size: 48px; font-weight: bold; text-transform: capitalize; white-space: pre;">25</text>
</svg>
