<?xml version="1.0" encoding="utf-8"?>
<svg viewBox="249 341 174 174" xmlns="http://www.w3.org/2000/svg">
  <path d="M 421.997 427.758 C 421.997 475.205 383.533 513.669 336.086 513.669 C 288.639 513.669 250.176 475.205 250.176 427.758 C 250.176 380.311 288.639 341.847 336.086 341.847 C 383.533 341.847 421.997 380.311 421.997 427.758 Z" class="foreground" style="stroke: none;"/>
  <path d="M 411.763 427.61 C 411.763 469.815 377.549 504.029 335.344 504.029 C 293.139 504.029 258.925 469.815 258.925 427.61 C 258.925 385.405 293.139 351.191 335.344 351.191 C 377.549 351.191 411.763 385.405 411.763 427.61 Z" class="background" style="stroke: none;"/>
  <path d="M 299.086 410.969 L 306.242 410.969 L 306.242 402.218 C 306.244 385.119 319.605 371.258 336.086 371.258 C 352.567 371.258 365.928 385.119 365.929 402.218 L 365.929 410.969 L 373.086 410.969 L 373.086 478.258 L 299.086 478.258 Z M 316.475 410.969 L 355.697 410.969 L 355.697 402.218 L 355.445 402.218 C 355.011 391.379 346.404 382.73 335.852 382.73 C 325.296 382.73 316.69 391.379 316.257 402.218 L 316.475 402.218 Z" class="foreground" style="stroke-linejoin: round; stroke-width: 4;"/>
  <path d="M 342.44 438.549 C 342.44 441.412 340.682 443.848 338.225 444.759 L 338.225 457.152 L 333.947 457.152 L 333.947 444.759 C 331.49 443.848 329.732 441.412 329.732 438.549 C 329.732 434.908 332.577 431.957 336.086 431.957 C 339.596 431.957 342.44 434.908 342.44 438.549 Z" class="background" style="stroke: none;"/>
</svg>
