<?xml version="1.0" encoding="utf-8"?>
<svg width="428" height="268" viewBox="0 0 428 268" preserveAspectRatio="xMaxYMax meet" xmlns="http://www.w3.org/2000/svg" >
  <path d="M 116.679 45.5 L 97.325 123.124 L 291.385 171.508 L 310.738 93.884 C 310.738 93.884 310.738 93.884 310.738 93.884 C 314.079 80.487 273.345 58.796 219.757 45.435 C 166.169 32.074 120.02 32.103 116.679 45.5 Z"/>
  <path d="M 324 122.337 L 324 175.539 C 330.342 177.29 335 183.101 335 190 C 335 196.271 331.151 201.644 325.687 203.884 L 340 264 L 300 264 L 314.313 203.884 C 308.849 201.644 305 196.271 305 190 C 305 183.101 309.658 177.29 316 175.539 L 316 122.787 L 307.536 123.264 L 314.62 94.852 C 318.494 79.311 276.456 55.449 220.725 41.553 C 164.993 27.658 116.673 28.992 112.798 44.532 L 105.714 72.944 L 8.904 14.259 L 230.643 1.771 L 420.565 116.898 Z"/>
</svg>
