<?xml version="1.0" encoding="utf-8"?>
<svg viewBox="249 341 174 174" xmlns="http://www.w3.org/2000/svg">
  <path d="M 421.997 427.758 C 421.997 475.205 383.533 513.669 336.086 513.669 C 288.639 513.669 250.176 475.205 250.176 427.758 C 250.176 380.311 288.639 341.847 336.086 341.847 C 383.533 341.847 421.997 380.311 421.997 427.758 Z" class="foreground"/>
  <path d="M 411.763 427.758 C 411.763 469.963 377.549 504.177 335.344 504.177 C 293.139 504.177 258.925 469.963 258.925 427.758 C 258.925 385.553 293.139 351.339 335.344 351.339 C 377.549 351.339 411.763 385.553 411.763 427.758 Z M 372.913 408.375 C 373.511 425.516 361.757 436.48 361.757 436.265 C 361.757 436.05 368.009 425.898 366.692 420.818 C 366.231 419.041 364.484 417.352 362.616 415.993 C 364.711 411.905 365.893 407.272 365.893 402.362 C 365.893 385.833 352.494 372.434 335.966 372.434 C 319.437 372.434 306.038 385.833 306.038 402.362 C 306.038 407.323 307.245 412.003 309.382 416.122 C 307.581 417.458 305.927 419.096 305.481 420.818 C 304.164 425.898 310.416 436.05 310.416 436.265 C 310.416 436.48 298.662 425.516 299.26 408.375 C 300.186 381.832 329.51 371.045 329.51 371.045 C 329.51 371.045 284.94 383.199 284.885 410.305 C 284.811 446.843 323.074 461.795 323.074 462.01 C 323.074 462.225 323.288 464.799 323.288 464.799 L 312.99 466.73 L 305.481 479.602 C 305.481 479.602 314.428 485.404 335.811 485.804 L 335.811 485.813 C 335.903 485.812 335.995 485.81 336.087 485.809 C 336.178 485.81 336.27 485.812 336.362 485.813 L 336.362 485.804 C 357.745 485.404 366.692 479.602 366.692 479.602 L 359.183 466.73 L 348.885 464.799 C 348.885 464.799 349.099 462.225 349.099 462.01 C 349.099 461.795 387.362 446.843 387.288 410.305 C 387.233 383.199 342.663 371.045 342.663 371.045 C 342.663 371.045 371.987 381.832 372.913 408.375 Z M 355.36 425.156 C 355.453 425.528 355.515 425.94 355.536 426.396 C 355.796 431.96 342.663 448.28 342.663 448.065 C 342.663 447.85 341.528 442.1 340.089 439.483 C 339.405 438.239 337.41 437.68 337.3 436.265 C 337.203 435.016 338.12 433.447 339.131 432.125 C 345.29 431.477 350.892 428.962 355.36 425.156 Z M 333.062 432.151 C 334.065 433.468 334.97 435.024 334.873 436.265 C 334.763 437.68 332.768 438.239 332.084 439.483 C 330.645 442.1 329.51 447.85 329.51 448.065 C 329.51 448.28 316.377 431.96 316.637 426.396 C 316.655 426.009 316.702 425.653 316.773 425.326 C 321.272 429.09 326.893 431.557 333.062 432.151 Z" class="background"/>
</svg>